<svg id="레이어_1" data-name="레이어 1" xmlns="http://www.w3.org/2000/svg" viewBox="0 0 152 152"><defs><style>.cls-1{fill:#4666e5;}.cls-2{fill:#fff;}</style></defs><path class="cls-1" d="M152,10V142a10,10,0,0,1-10,10H10A10,10,0,0,1,0,142V10A10,10,0,0,1,10,0H142A10,10,0,0,1,152,10Z"/><path class="cls-2" d="M27.7,36.88H39.06l.86-4.83H28.86c-5.24,0-9.47,2.24-10.26,6.7-1.43,8,11,5.83,10.47,9-.18,1-1.4,1.55-3.12,1.55H0v4.84H24.72c5.77,0,10.23-2.36,11.08-7.23,1.37-7.64-11-5.68-10.49-8.83C25.42,37.32,26.18,36.88,27.7,36.88Z"/><path class="cls-2" d="M37.81,53.58l3.7-21H58.62l-.88,4.89H47.52l-.53,3h8.66l-.85,4.89H46.15l-.59,3.3H56.2l-.87,4.89Z"/><path class="cls-2" d="M81.64,43a12.9,12.9,0,0,1-13,11.17c-6.59,0-10.29-4.08-9-11.22A12.72,12.72,0,0,1,72.55,32.05C80,32.05,82.64,37.44,81.64,43ZM66.52,43c-.47,2.69-.23,6,3.06,6,3,0,4.57-2.57,5.19-6,.49-2.85-.12-5.88-3.18-5.8S67,40.32,66.52,43Z"/><path class="cls-2" d="M86.66,32.6h6.88L91.32,45.16c-.38,2.07-.26,3.85,2.57,3.85,2.47,0,3.47-1.58,3.87-3.85L100,32.6h6.88l-2.1,11.86c-1.2,6.73-4.81,9.68-11.78,9.68-6.5,0-9.67-2.48-8.42-9.71Z"/><path class="cls-2" d="M115.16,48.69,118,32.6h-6.88l-3.7,21H152V48.69Z"/><path class="cls-2" d="M16.56,89.62l3.71-21h6.87l-1.25,7.08h6.5l1.25-7.08h6.88l-3.7,21H29.94l1.43-8.13h-6.5l-1.43,8.13Z"/><path class="cls-2" d="M41.05,89.62l3.7-21h6.88l-3.7,21Z"/><path class="cls-2" d="M52,84.81l.93-5.3h7.81l-.93,5.3Z"/><path class="cls-2" d="M16.56,123.08l3.71-21H30.38c6,0,8.45,2.76,7.69,7.08-.78,4.52-4,7.37-10,7.37H24.58l-1.14,6.53Zm11.75-11.42a2.88,2.88,0,0,0,3.21-2.45c.35-2-1.84-2.22-3.3-2.22H26.27l-.82,4.67Z"/><path class="cls-2" d="M34.11,123.08l11.22-21h7l3.81,21H49.29L49,120.31H42.13l-1.29,2.77Zm13.55-14.66-3.47,7.52h4.35Z"/><path class="cls-2" d="M72.06,108.19a1.47,1.47,0,0,0-.73-1.43,3.53,3.53,0,0,0-1.72-.38c-1.52,0-2.27.44-2.39,1.2-.55,3.14,11.86,1.19,10.49,8.83-.84,4.86-5.3,7.22-11.07,7.22-5.54,0-8.6-3.23-8.08-7h6.59a2,2,0,0,0,.85,1.66,3.3,3.3,0,0,0,1.86.53c1.72,0,3-.56,3.12-1.55.55-3.18-11.89-1-10.46-9,.78-4.46,5-6.71,10.26-6.71,5.82,0,8,3,7.81,6.65Z"/><path class="cls-2" d="M93.1,108.19a1.47,1.47,0,0,0-.73-1.43,3.5,3.5,0,0,0-1.72-.38c-1.51,0-2.27.44-2.39,1.2-.55,3.14,11.87,1.19,10.5,8.83-.85,4.86-5.31,7.22-11.08,7.22-5.54,0-8.6-3.23-8.07-7h6.58a2,2,0,0,0,.85,1.66,3.36,3.36,0,0,0,1.87.53c1.71,0,2.94-.56,3.11-1.55.56-3.18-11.89-1-10.46-9,.79-4.46,5-6.71,10.26-6.71,5.83,0,8,3,7.81,6.65Z"/></svg>