<svg id="레이어_1" data-name="레이어 1" xmlns="http://www.w3.org/2000/svg" viewBox="0 0 355.59 56.38"><defs><style>.cls-1{fill:#4666e5;}</style></defs><polygon class="cls-1" points="98.61 6.33 86.91 31.82 84.19 6.33 68.01 6.33 62.48 37.67 8.4 37.67 6.72 47.21 63 47.21 63 47.2 72.84 47.2 75.28 33.35 76.13 27 76.58 20.98 76.7 20.98 79.53 47.2 88.84 47.2 100.88 20.98 100.99 20.98 99.06 28.36 97.76 34.72 95.54 47.2 107.58 47.2 114.78 6.33 98.61 6.33"/><path class="cls-1" d="M139.76,47.2H126.37L129,32.33l-10.62-26h15L138,20.18l9.48-13.85h14.76L142.43,32.1Z"/><path class="cls-1" d="M177.29,47.2,184.5,6.33h19.69c11.75,0,16.47,5.4,15,13.8-1.53,8.8-7.78,14.36-19.53,14.36H192.9L190.69,47.2ZM200.17,25c3.12,0,5.61-1.25,6.24-4.77.68-3.8-3.58-4.31-6.42-4.31h-3.8L194.6,25Z"/><path class="cls-1" d="M211.46,47.2,233.32,6.33h13.62l7.44,40.87H241l-.63-5.39H227.07l-2.5,5.39Zm26.4-28.55L231.1,33.3h8.46Z"/><path class="cls-1" d="M298.48,47.32h-8.62l.17-4c-2.67,2.61-6.76,5-13.17,5-10.45,0-18.62-6.75-16.12-21,2.27-13.06,12-22,25.26-22,9.82,0,16.8,5.1,16.68,15.15H290c-.34-3.35-2.5-5.16-6-5.16-5.28,0-8.63,4.76-9.88,12-1,5.79-.11,11.07,6.64,11.07,2.73,0,6.53-1.87,7.67-4.71h-5.91l1.59-8.86h18.34Z"/><path class="cls-1" d="M306.6,47.2l7.21-40.87h33.32l-1.7,9.54H325.51l-1,5.85h16.86l-1.64,9.53H322.84l-1.14,6.42h20.72l-1.7,9.53Z"/></svg>